<mxfile host="app.diagrams.net" modified="2023-05-29T06:57:47.662Z" agent="Mozilla/5.0 (Windows NT 10.0; Win64; x64) AppleWebKit/537.36 (KHTML, like Gecko) Chrome/112.0.0.0 Safari/537.36 OPR/98.0.0.0" etag="_taXdMEMu0KCC4z3e-eO" version="21.3.5" type="device">
  <diagram name="Page-1" id="qrpLFlRsGZqDi6FHed2L">
    <mxGraphModel dx="790" dy="440" grid="0" gridSize="10" guides="1" tooltips="1" connect="1" arrows="1" fold="1" page="1" pageScale="1" pageWidth="827" pageHeight="1169" background="#ffffff" math="0" shadow="0">
      <root>
        <mxCell id="0" />
        <mxCell id="1" parent="0" />
        <mxCell id="_r7byrhbNO5gASwCjzYp-1" value="&lt;font style=&quot;font-size: 12px;&quot; color=&quot;#000000&quot;&gt;Divizor de frecventa&lt;/font&gt;" style="rounded=0;whiteSpace=wrap;html=1;fillColor=none;strokeColor=#000000;fontSize=24;" vertex="1" parent="1">
          <mxGeometry x="262" y="326" width="236" height="75" as="geometry" />
        </mxCell>
        <mxCell id="_r7byrhbNO5gASwCjzYp-2" value="" style="endArrow=classic;html=1;rounded=0;strokeColor=#000000;entryX=-0.006;entryY=0.385;entryDx=0;entryDy=0;entryPerimeter=0;" edge="1" parent="1" target="_r7byrhbNO5gASwCjzYp-1">
          <mxGeometry width="50" height="50" relative="1" as="geometry">
            <mxPoint x="169" y="355" as="sourcePoint" />
            <mxPoint x="253" y="355" as="targetPoint" />
          </mxGeometry>
        </mxCell>
        <mxCell id="_r7byrhbNO5gASwCjzYp-3" value="" style="endArrow=classic;html=1;rounded=0;strokeColor=#000000;" edge="1" parent="1">
          <mxGeometry width="50" height="50" relative="1" as="geometry">
            <mxPoint x="498" y="350" as="sourcePoint" />
            <mxPoint x="573" y="349" as="targetPoint" />
          </mxGeometry>
        </mxCell>
        <mxCell id="_r7byrhbNO5gASwCjzYp-4" value="&lt;font color=&quot;#000000&quot;&gt;CLK100M&lt;/font&gt;" style="text;html=1;strokeColor=none;fillColor=none;align=center;verticalAlign=middle;whiteSpace=wrap;rounded=0;" vertex="1" parent="1">
          <mxGeometry x="262" y="340" width="60" height="30" as="geometry" />
        </mxCell>
        <mxCell id="_r7byrhbNO5gASwCjzYp-5" value="&lt;font color=&quot;#000000&quot;&gt;CLK1S&lt;/font&gt;" style="text;html=1;strokeColor=none;fillColor=none;align=center;verticalAlign=middle;whiteSpace=wrap;rounded=0;" vertex="1" parent="1">
          <mxGeometry x="441" y="335" width="60" height="30" as="geometry" />
        </mxCell>
      </root>
    </mxGraphModel>
  </diagram>
</mxfile>
